<svg width="29" height="26" viewBox="0 0 29 26" fill="none" xmlns="http://www.w3.org/2000/svg">
<rect x="0.649902" width="28.35" height="25.2" rx="6.3" fill="#F9FAFB"/>
<path d="M8.9187 8.66235H10.2312M10.2312 8.66235H20.7312M10.2312 8.66235V17.8499C10.2312 18.198 10.3695 18.5318 10.6156 18.7779C10.8618 19.0241 11.1956 19.1624 11.5437 19.1624H18.1062C18.4543 19.1624 18.7881 19.0241 19.0343 18.7779C19.2804 18.5318 19.4187 18.198 19.4187 17.8499V8.66235H10.2312ZM12.2 8.66235V7.34985C12.2 7.00176 12.3382 6.66792 12.5844 6.42178C12.8305 6.17563 13.1644 6.03735 13.5125 6.03735H16.1375C16.4855 6.03735 16.8194 6.17563 17.0655 6.42178C17.3117 6.66792 17.45 7.00176 17.45 7.34985V8.66235M13.5125 11.9436V15.8811M16.1375 11.9436V15.8811" stroke="#F04438" stroke-width="0.945" stroke-linecap="round" stroke-linejoin="round"/>
</svg>
