<svg width="20" height="21" viewBox="0 0 20 21" fill="none" xmlns="http://www.w3.org/2000/svg">
<path d="M12.9834 10.1154C12.9834 11.7654 11.6501 13.0987 10.0001 13.0987C8.35006 13.0987 7.01672 11.7654 7.01672 10.1154C7.01672 8.46541 8.35006 7.13208 10.0001 7.13208C11.6501 7.13208 12.9834 8.46541 12.9834 10.1154Z" stroke="#BDBDBD" stroke-width="1.5" stroke-linecap="round" stroke-linejoin="round"/>
<path d="M9.99999 17.007C12.9417 17.007 15.6833 15.2737 17.5917 12.2737C18.3417 11.0987 18.3417 9.12367 17.5917 7.94867C15.6833 4.94866 12.9417 3.21533 9.99999 3.21533C7.05833 3.21533 4.31666 4.94866 2.40833 7.94867C1.65833 9.12367 1.65833 11.0987 2.40833 12.2737C4.31666 15.2737 7.05833 17.007 9.99999 17.007Z" stroke="#BDBDBD" stroke-width="1.5" stroke-linecap="round" stroke-linejoin="round"/>
</svg>
