<svg width="20" height="21" viewBox="0 0 20 21" fill="none" xmlns="http://www.w3.org/2000/svg">
<path d="M12.1084 8.00708L7.89172 12.2237C7.35006 11.6821 7.01672 10.9404 7.01672 10.1154C7.01672 8.46541 8.35006 7.13208 10.0001 7.13208C10.8251 7.13208 11.5667 7.46541 12.1084 8.00708Z" stroke="#BDBDBD" stroke-width="1.5" stroke-linecap="round" stroke-linejoin="round"/>
<path d="M14.85 4.92363C13.3917 3.82363 11.725 3.22363 9.99999 3.22363C7.05832 3.22363 4.31666 4.95697 2.40833 7.95697C1.65833 9.13197 1.65833 11.107 2.40833 12.282C3.06666 13.3153 3.83332 14.207 4.66666 14.9236" stroke="#BDBDBD" stroke-width="1.5" stroke-linecap="round" stroke-linejoin="round"/>
<path d="M7.01672 16.3903C7.96672 16.7903 8.97506 17.007 10.0001 17.007C12.9417 17.007 15.6834 15.2736 17.5917 12.2736C18.3417 11.0986 18.3417 9.12363 17.5917 7.94863C17.3167 7.5153 17.0167 7.10697 16.7084 6.72363" stroke="#BDBDBD" stroke-width="1.5" stroke-linecap="round" stroke-linejoin="round"/>
<path d="M12.925 10.6987C12.7083 11.8737 11.75 12.8321 10.575 13.0487" stroke="#BDBDBD" stroke-width="1.5" stroke-linecap="round" stroke-linejoin="round"/>
<path d="M7.89163 12.2236L1.66663 18.4486" stroke="#BDBDBD" stroke-width="1.5" stroke-linecap="round" stroke-linejoin="round"/>
<path d="M18.3333 1.78198L12.1083 8.00698" stroke="#BDBDBD" stroke-width="1.5" stroke-linecap="round" stroke-linejoin="round"/>
</svg>
