<svg width="24" height="25" viewBox="0 0 24 25" fill="none" xmlns="http://www.w3.org/2000/svg">
<g clip-path="url(#clip0_2_1804)">
<path d="M7 0.5H4C1.79086 0.5 0 2.29086 0 4.5V7.5C0 9.70914 1.79086 11.5 4 11.5H7C9.20914 11.5 11 9.70914 11 7.5V4.5C11 2.29086 9.20914 0.5 7 0.5Z" fill="#19AFD0"/>
<path d="M19.9999 0.5H16.9999C14.7907 0.5 12.9999 2.29086 12.9999 4.5V7.5C12.9999 9.70915 14.7907 11.5 16.9999 11.5H19.9999C22.209 11.5 23.9999 9.70915 23.9999 7.5V4.5C23.9999 2.29086 22.209 0.5 19.9999 0.5Z" fill="#19AFD0"/>
<path d="M7 13.5H4C1.79086 13.5 0 15.2909 0 17.5V20.5C0 22.7092 1.79086 24.5 4 24.5H7C9.20914 24.5 11 22.7092 11 20.5V17.5C11 15.2909 9.20914 13.5 7 13.5Z" fill="#19AFD0"/>
<path d="M19.9999 13.5H16.9999C14.7907 13.5 12.9999 15.2909 12.9999 17.5V20.5C12.9999 22.7092 14.7907 24.5 16.9999 24.5H19.9999C22.209 24.5 23.9999 22.7092 23.9999 20.5V17.5C23.9999 15.2909 22.209 13.5 19.9999 13.5Z" fill="#19AFD0"/>
</g>
<defs>
<clipPath id="clip0_2_1804">
<rect width="24" height="24" fill="white" transform="translate(0 0.5)"/>
</clipPath>
</defs>
</svg>
