<svg width="24" height="25" viewBox="0 0 24 25" fill="none" xmlns="http://www.w3.org/2000/svg">
<g clip-path="url(#clip0_17_3000)">
<path d="M7 0.5H4C1.79086 0.5 0 2.29086 0 4.5V7.5C0 9.70914 1.79086 11.5 4 11.5H7C9.20914 11.5 11 9.70914 11 7.5V4.5C11 2.29086 9.20914 0.5 7 0.5Z" fill="#B3B3B3"/>
<path d="M19.9998 0.5H16.9998C14.7907 0.5 12.9999 2.29086 12.9999 4.5V7.5C12.9999 9.70915 14.7907 11.5 16.9998 11.5H19.9998C22.209 11.5 23.9998 9.70915 23.9998 7.5V4.5C23.9998 2.29086 22.209 0.5 19.9998 0.5Z" fill="#B3B3B3"/>
<path d="M6.99999 13.5H3.99999C1.79085 13.5 -7.62939e-06 15.2909 -7.62939e-06 17.5V20.5C-7.62939e-06 22.7092 1.79085 24.5 3.99999 24.5H6.99999C9.20913 24.5 11 22.7092 11 20.5V17.5C11 15.2909 9.20913 13.5 6.99999 13.5Z" fill="#B3B3B3"/>
<path d="M19.9998 13.5H16.9998C14.7907 13.5 12.9999 15.2909 12.9999 17.5V20.5C12.9999 22.7092 14.7907 24.5 16.9998 24.5H19.9998C22.209 24.5 23.9998 22.7092 23.9998 20.5V17.5C23.9998 15.2909 22.209 13.5 19.9998 13.5Z" fill="#B3B3B3"/>
</g>
<defs>
<clipPath id="clip0_17_3000">
<rect width="24" height="24" fill="white" transform="translate(0 0.5)"/>
</clipPath>
</defs>
</svg>
