<svg width="25" height="25" viewBox="0 0 25 25" fill="none" xmlns="http://www.w3.org/2000/svg">
<g clip-path="url(#clip0_17_3003)">
<path d="M9.5 0.5H5.5C4.17392 0.5 2.90215 1.02678 1.96447 1.96447C1.02678 2.90215 0.5 4.17392 0.5 5.5L0.5 19.5C0.5 20.1566 0.629329 20.8068 0.880602 21.4134C1.13188 22.02 1.50017 22.5712 1.96447 23.0355C2.90215 23.9732 4.17392 24.5 5.5 24.5H14.5V5.5C14.5 4.84339 14.3707 4.19321 14.1194 3.58658C13.8681 2.97995 13.4998 2.42876 13.0355 1.96447C12.5712 1.50017 12.02 1.13188 11.4134 0.880602C10.8068 0.629329 10.1566 0.5 9.5 0.5V0.5ZM5.5 19.5H4.5C4.23478 19.5 3.98043 19.3946 3.79289 19.2071C3.60536 19.0196 3.5 18.7652 3.5 18.5C3.5 18.2348 3.60536 17.9804 3.79289 17.7929C3.98043 17.6054 4.23478 17.5 4.5 17.5H5.5C5.76522 17.5 6.01957 17.6054 6.20711 17.7929C6.39464 17.9804 6.5 18.2348 6.5 18.5C6.5 18.7652 6.39464 19.0196 6.20711 19.2071C6.01957 19.3946 5.76522 19.5 5.5 19.5ZM5.5 15.5H4.5C4.23478 15.5 3.98043 15.3946 3.79289 15.2071C3.60536 15.0196 3.5 14.7652 3.5 14.5C3.5 14.2348 3.60536 13.9804 3.79289 13.7929C3.98043 13.6054 4.23478 13.5 4.5 13.5H5.5C5.76522 13.5 6.01957 13.6054 6.20711 13.7929C6.39464 13.9804 6.5 14.2348 6.5 14.5C6.5 14.7652 6.39464 15.0196 6.20711 15.2071C6.01957 15.3946 5.76522 15.5 5.5 15.5ZM5.5 11.5H4.5C4.23478 11.5 3.98043 11.3946 3.79289 11.2071C3.60536 11.0196 3.5 10.7652 3.5 10.5C3.5 10.2348 3.60536 9.98043 3.79289 9.79289C3.98043 9.60536 4.23478 9.5 4.5 9.5H5.5C5.76522 9.5 6.01957 9.60536 6.20711 9.79289C6.39464 9.98043 6.5 10.2348 6.5 10.5C6.5 10.7652 6.39464 11.0196 6.20711 11.2071C6.01957 11.3946 5.76522 11.5 5.5 11.5ZM5.5 7.5H4.5C4.23478 7.5 3.98043 7.39464 3.79289 7.20711C3.60536 7.01957 3.5 6.76522 3.5 6.5C3.5 6.23478 3.60536 5.98043 3.79289 5.79289C3.98043 5.60536 4.23478 5.5 4.5 5.5H5.5C5.76522 5.5 6.01957 5.60536 6.20711 5.79289C6.39464 5.98043 6.5 6.23478 6.5 6.5C6.5 6.76522 6.39464 7.01957 6.20711 7.20711C6.01957 7.39464 5.76522 7.5 5.5 7.5ZM10.5 19.5H9.5C9.23478 19.5 8.98043 19.3946 8.79289 19.2071C8.60536 19.0196 8.5 18.7652 8.5 18.5C8.5 18.2348 8.60536 17.9804 8.79289 17.7929C8.98043 17.6054 9.23478 17.5 9.5 17.5H10.5C10.7652 17.5 11.0196 17.6054 11.2071 17.7929C11.3946 17.9804 11.5 18.2348 11.5 18.5C11.5 18.7652 11.3946 19.0196 11.2071 19.2071C11.0196 19.3946 10.7652 19.5 10.5 19.5ZM10.5 15.5H9.5C9.23478 15.5 8.98043 15.3946 8.79289 15.2071C8.60536 15.0196 8.5 14.7652 8.5 14.5C8.5 14.2348 8.60536 13.9804 8.79289 13.7929C8.98043 13.6054 9.23478 13.5 9.5 13.5H10.5C10.7652 13.5 11.0196 13.6054 11.2071 13.7929C11.3946 13.9804 11.5 14.2348 11.5 14.5C11.5 14.7652 11.3946 15.0196 11.2071 15.2071C11.0196 15.3946 10.7652 15.5 10.5 15.5ZM10.5 11.5H9.5C9.23478 11.5 8.98043 11.3946 8.79289 11.2071C8.60536 11.0196 8.5 10.7652 8.5 10.5C8.5 10.2348 8.60536 9.98043 8.79289 9.79289C8.98043 9.60536 9.23478 9.5 9.5 9.5H10.5C10.7652 9.5 11.0196 9.60536 11.2071 9.79289C11.3946 9.98043 11.5 10.2348 11.5 10.5C11.5 10.7652 11.3946 11.0196 11.2071 11.2071C11.0196 11.3946 10.7652 11.5 10.5 11.5ZM10.5 7.5H9.5C9.23478 7.5 8.98043 7.39464 8.79289 7.20711C8.60536 7.01957 8.5 6.76522 8.5 6.5C8.5 6.23478 8.60536 5.98043 8.79289 5.79289C8.98043 5.60536 9.23478 5.5 9.5 5.5H10.5C10.7652 5.5 11.0196 5.60536 11.2071 5.79289C11.3946 5.98043 11.5 6.23478 11.5 6.5C11.5 6.76522 11.3946 7.01957 11.2071 7.20711C11.0196 7.39464 10.7652 7.5 10.5 7.5ZM19.5 5.5H16.5V24.5H19.5C20.8256 24.4984 22.0964 23.9711 23.0338 23.0338C23.9711 22.0964 24.4984 20.8256 24.5 19.5V10.5C24.4984 9.17441 23.9711 7.90356 23.0338 6.96622C22.0964 6.02888 20.8256 5.50159 19.5 5.5ZM20.5 19.5C20.3022 19.5 20.1089 19.4414 19.9444 19.3315C19.78 19.2216 19.6518 19.0654 19.5761 18.8827C19.5004 18.7 19.4806 18.4989 19.5192 18.3049C19.5578 18.1109 19.653 17.9327 19.7929 17.7929C19.9327 17.653 20.1109 17.5578 20.3049 17.5192C20.4989 17.4806 20.7 17.5004 20.8827 17.5761C21.0654 17.6518 21.2216 17.78 21.3315 17.9444C21.4414 18.1089 21.5 18.3022 21.5 18.5C21.5 18.7652 21.3946 19.0196 21.2071 19.2071C21.0196 19.3946 20.7652 19.5 20.5 19.5ZM20.5 15.5C20.3022 15.5 20.1089 15.4414 19.9444 15.3315C19.78 15.2216 19.6518 15.0654 19.5761 14.8827C19.5004 14.7 19.4806 14.4989 19.5192 14.3049C19.5578 14.1109 19.653 13.9327 19.7929 13.7929C19.9327 13.653 20.1109 13.5578 20.3049 13.5192C20.4989 13.4806 20.7 13.5004 20.8827 13.5761C21.0654 13.6518 21.2216 13.78 21.3315 13.9444C21.4414 14.1089 21.5 14.3022 21.5 14.5C21.5 14.7652 21.3946 15.0196 21.2071 15.2071C21.0196 15.3946 20.7652 15.5 20.5 15.5ZM20.5 11.5C20.3022 11.5 20.1089 11.4414 19.9444 11.3315C19.78 11.2216 19.6518 11.0654 19.5761 10.8827C19.5004 10.7 19.4806 10.4989 19.5192 10.3049C19.5578 10.1109 19.653 9.93275 19.7929 9.79289C19.9327 9.65304 20.1109 9.5578 20.3049 9.51921C20.4989 9.48063 20.7 9.50043 20.8827 9.57612C21.0654 9.65181 21.2216 9.77998 21.3315 9.94443C21.4414 10.1089 21.5 10.3022 21.5 10.5C21.5 10.7652 21.3946 11.0196 21.2071 11.2071C21.0196 11.3946 20.7652 11.5 20.5 11.5Z" fill="#19AFD0"/>
</g>
<defs>
<clipPath id="clip0_17_3003">
<rect width="24" height="24" fill="white" transform="translate(0.5 0.5)"/>
</clipPath>
</defs>
</svg>
