<svg width="25" height="25" viewBox="0 0 25 25" fill="none" xmlns="http://www.w3.org/2000/svg">
<g clip-path="url(#clip0_2_1810)">
<path d="M24.1988 2.21826L5.68896 20.7232C6.08913 20.9182 6.52804 21.0207 6.97318 21.023H10.1433C10.4085 21.0223 10.6629 21.1277 10.8498 21.3158L12.5678 23.0328C13.4995 23.9709 14.7666 24.4989 16.0887 24.4999C16.6345 24.4994 17.1766 24.4099 17.6937 24.2351C19.4762 23.6507 20.7728 22.1054 21.0387 20.2485L24.4157 4.20808C24.5769 3.53972 24.5002 2.83613 24.1988 2.21826Z" fill="#B3B3B3"/>
<path d="M20.8208 0.577158L4.81942 3.94816C2.08535 4.32378 0.173438 6.8447 0.549056 9.57877C0.69742 10.6585 1.1947 11.6602 1.96514 12.431L3.68212 14.148C3.86979 14.3356 3.97515 14.5902 3.97496 14.8556V18.0257C3.97726 18.4708 4.07976 18.9098 4.27478 19.3099L22.7816 0.800055C22.1735 0.501173 21.4805 0.422423 20.8208 0.577158Z" fill="#B3B3B3"/>
</g>
<defs>
<clipPath id="clip0_2_1810">
<rect width="24" height="24" fill="white" transform="translate(0.5 0.5)"/>
</clipPath>
</defs>
</svg>
