<svg width="24" height="25" viewBox="0 0 24 25" fill="none" xmlns="http://www.w3.org/2000/svg">
<path d="M23.6988 2.21826L5.18896 20.7232C5.58913 20.9182 6.02804 21.0207 6.47318 21.023H9.64325C9.90845 21.0223 10.1629 21.1277 10.3498 21.3158L12.0678 23.0328C12.9995 23.9709 14.2666 24.4989 15.5887 24.4999C16.1345 24.4994 16.6766 24.4099 17.1937 24.2351C18.9762 23.6507 20.2728 22.1054 20.5387 20.2485L23.9157 4.20808C24.0769 3.53972 24.0002 2.83613 23.6988 2.21826Z" fill="#19AFD0"/>
<path d="M20.3208 0.577158L4.31942 3.94816C1.58535 4.32378 -0.326562 6.8447 0.0490558 9.57877C0.19742 10.6585 0.694699 11.6602 1.46514 12.431L3.18212 14.148C3.36979 14.3356 3.47515 14.5902 3.47496 14.8556V18.0257C3.47726 18.4708 3.57976 18.9098 3.77478 19.3099L22.2816 0.800055C21.6735 0.501173 20.9805 0.422423 20.3208 0.577158Z" fill="#19AFD0"/>
</svg>
